<?xml version="1.0" encoding="utf-8"?>
<!-- Generator: Adobe Illustrator 27.0.0, SVG Export Plug-In . SVG Version: 6.00 Build 0)  -->
<svg version="1.1" id="Capa_1" xmlns="http://www.w3.org/2000/svg" xmlns:xlink="http://www.w3.org/1999/xlink" x="0px" y="0px"
	 viewBox="0 0 367.1 90.4" style="enable-background:new 0 0 367.1 90.4;" xml:space="preserve">
<style type="text/css">
	.st0{fill:#FFFFFF;}
	.st1{fill-rule:evenodd;clip-rule:evenodd;fill:#FFFFFF;}
</style>
<g>
	<path class="st0" d="M112,72.7c-6.1,0-10.8-2.2-13.9-6.7l5.6-3.8c1.9,2.7,4.6,4,8.2,4c2.5,0,4.4-0.5,5.8-1.5c1.4-1,2.1-2.6,2.1-4.6
		v-0.8c-2.1,1.8-4.9,2.6-8.3,2.6c-3.9,0-7.3-1.4-10.1-4.2c-2.8-2.8-4.2-6.2-4.2-10.3s1.4-7.5,4.2-10.3c2.8-2.8,6.2-4.2,10.1-4.2
		c3.4,0,6.1,0.9,8.3,2.6v-2.1h7.8v26c0,3.9-1.4,7.1-4.1,9.6C120.6,71.5,116.8,72.7,112,72.7z M112.1,39.9c-2.1,0-3.8,0.7-5.3,2.2
		c-1.4,1.5-2.2,3.3-2.2,5.4c0,2.1,0.7,3.9,2.2,5.4c1.4,1.5,3.2,2.2,5.3,2.2c2.2,0,4.1-0.7,5.5-2.2c1.5-1.5,2.2-3.3,2.2-5.4
		c0-2.1-0.8-3.9-2.2-5.4C116.1,40.6,114.2,39.9,112.1,39.9z"/>
	<path class="st0" d="M158.9,56c-3,4.6-7.6,6.9-13.7,6.9c-4.5,0-8.2-1.4-11-4.2c-2.8-2.8-4.2-6.4-4.2-10.8c0-4.2,1.4-7.8,4.3-10.7
		c2.8-2.9,6.5-4.4,11-4.4c4.5,0,8,1.4,10.7,4.1c2.6,2.8,4,6.3,4,10.5c0,0.3,0,0.7,0,1.2c0,0.4,0,0.8-0.1,1.1c0,0.3,0,0.5,0,0.5h-22
		c0.4,1.9,1.3,3.3,2.6,4.4s3,1.6,5,1.6c3.3,0,5.8-1.3,7.6-3.8L158.9,56z M145.2,39.2c-3.7,0-6.1,1.7-7.2,5.2h14
		c-0.4-1.7-1.2-3-2.5-3.9S146.9,39.2,145.2,39.2z"/>
	<path class="st0" d="M162.1,53.1h7.9c0,1,0.4,2,1.3,2.7c0.8,0.8,2.2,1.2,4.1,1.2c1.4,0,2.4-0.3,3.2-0.8c0.7-0.5,1.1-1.2,1.1-1.9
		c0-0.8-0.4-1.4-1.3-1.8c-0.8-0.4-1.9-0.7-3.1-0.8c-1.3-0.1-2.6-0.4-4.1-0.7c-1.5-0.3-2.8-0.8-4.1-1.3c-1.3-0.5-2.3-1.4-3.1-2.6
		c-0.8-1.3-1.3-2.8-1.3-4.7c0-2.7,1.1-4.9,3.3-6.7c2.2-1.8,5.1-2.7,8.7-2.7c3.6,0,6.5,0.9,8.7,2.6c2.2,1.7,3.4,4,3.6,7h-7.8
		c-0.1-1.2-0.4-2.1-1.1-2.7c-0.6-0.6-1.8-1-3.4-1c-2.7,0-4.1,0.8-4.1,2.5c0,0.9,0.6,1.6,1.8,2.1c1.2,0.5,2.7,0.8,4.4,1.1
		c1.7,0.3,3.4,0.6,5.1,1c1.7,0.4,3.2,1.3,4.4,2.5c1.2,1.2,1.8,2.8,1.8,4.9c0,3.3-1.2,5.7-3.6,7.3c-2.4,1.6-5.5,2.4-9.4,2.4
		c-3.9,0-7-0.9-9.3-2.7C163.4,58.2,162.2,55.9,162.1,53.1z"/>
	<path class="st0" d="M200.9,33.3h7.1v7h-7.1v11.6c0,1.3,0.3,2.2,0.9,2.8c0.6,0.6,1.6,0.8,2.9,0.8h3.3v6.7h-3.8
		c-7.4,0-11.1-3.3-11.1-9.9v-12H189v-7h4.2v-7.4h7.8V33.3z"/>
	<path class="st0" d="M218.8,30.8h-7.8v-7.2h7.8V30.8z M218.8,62.2h-7.8V33.3h7.8V62.2z"/>
	<path class="st0" d="M236.9,32.8c4.4,0,8.1,1.5,11.1,4.4c3,2.9,4.4,6.5,4.4,10.7c0,4.2-1.5,7.7-4.4,10.7c-3,2.9-6.7,4.4-11.1,4.4
		c-4.4,0-8.1-1.4-11-4.3c-2.9-2.9-4.4-6.4-4.4-10.7c0-4.2,1.5-7.8,4.4-10.7C228.8,34.2,232.5,32.8,236.9,32.8z M242.4,42.1
		c-1.5-1.5-3.3-2.3-5.5-2.3c-2.2,0-4.1,0.8-5.5,2.3c-1.5,1.5-2.2,3.4-2.2,5.7c0,2.3,0.7,4.2,2.2,5.8c1.4,1.5,3.3,2.3,5.4,2.3
		c2.2,0,4.1-0.8,5.6-2.3c1.5-1.5,2.3-3.4,2.3-5.7C244.6,45.5,243.9,43.6,242.4,42.1z"/>
	<path class="st0" d="M262.6,33.3v2.9c0.8-0.9,1.9-1.7,3.4-2.4c1.5-0.7,3.1-1,5-1c3.4,0,6.1,1.1,8.1,3.2c2,2.1,3,4.9,3,8.4v17.7
		h-7.8V45.8c0-1.7-0.5-3.1-1.4-4.2c-0.9-1.1-2.2-1.6-3.9-1.6c-1.9,0-3.4,0.6-4.6,1.7c-1.2,1.1-1.7,2.7-1.7,4.7v15.7h-7.8V33.3H262.6
		z"/>
	<path class="st0" d="M312.5,62.2h-7.7v-2.9c-2.1,2.2-4.9,3.4-8.4,3.4c-3.4,0-6.1-1.1-8.1-3.2c-2-2.1-3-4.9-3-8.4V33.3h7.8v16.4
		c0,1.7,0.5,3.1,1.4,4.2c1,1.1,2.3,1.6,3.9,1.6c1.9,0,3.4-0.6,4.6-1.7c1.2-1.1,1.7-2.7,1.7-4.7V33.3h7.8V62.2z"/>
	<path class="st0" d="M315.2,53.1h7.9c0,1,0.4,2,1.3,2.7c0.8,0.8,2.2,1.2,4.1,1.2c1.4,0,2.4-0.3,3.2-0.8c0.7-0.5,1.1-1.2,1.1-1.9
		c0-0.8-0.4-1.4-1.3-1.8c-0.8-0.4-1.9-0.7-3.1-0.8c-1.3-0.1-2.6-0.4-4.1-0.7c-1.5-0.3-2.8-0.8-4.1-1.3c-1.3-0.5-2.3-1.4-3.1-2.6
		c-0.8-1.3-1.3-2.8-1.3-4.7c0-2.7,1.1-4.9,3.3-6.7c2.2-1.8,5.1-2.7,8.7-2.7c3.6,0,6.5,0.9,8.7,2.6c2.2,1.7,3.4,4,3.6,7h-7.8
		c-0.1-1.2-0.4-2.1-1.1-2.7c-0.6-0.6-1.8-1-3.4-1c-2.7,0-4.1,0.8-4.1,2.5c0,0.9,0.6,1.6,1.8,2.1c1.2,0.5,2.7,0.8,4.4,1.1
		c1.7,0.3,3.4,0.6,5.1,1c1.7,0.4,3.2,1.3,4.4,2.5c1.2,1.2,1.8,2.8,1.8,4.9c0,3.3-1.2,5.7-3.6,7.3c-2.4,1.6-5.5,2.4-9.4,2.4
		c-3.9,0-7-0.9-9.3-2.7C316.4,58.2,315.2,55.9,315.2,53.1z"/>
</g>
<g>
</g>
<path class="st1" d="M49.5,15.4c-18.9,0-34.2,15.3-34.2,34.2c0,10.8,5,20.4,12.9,26.7C25,69.1,22.6,55.6,22,51.8
	c-0.8-5.3-2.6-8.4,0.2-9.4c3-1,5.3,7.3,11.3,13.9c6.5,7.1,15.1,2.4,16.8,6.9c0.9,2.3-5,4.4-7.5,7.6c-3.4,4.4-3.7,7.5-3.5,11.2
	c3.3,1,6.7,1.6,10.3,1.6c3.9,0,7.7-0.7,11.2-1.9c0-1.7,0-3.3-0.1-4.9c-0.4-4.3-1.7-8.8-4.3-12.3c-1.2-1.6-2.6-3.1-4.2-4.1
	c-1.7-1.1-3.6-1.8-5.2-3c-1.3-1-2.9-2.9-2.7-4.7c0.3-2.1,3.1-1.9,4.6-1.8c4.8,0.4,9.7,1.1,14.4-0.4c4.4-1.3,7.5-4.6,10.2-8.1
	c0.5-0.6,2.1-2.8,3.2-2.3c1.8,1,1.5,4.3,1.6,5.9c0.3,6.6-0.5,13-2.7,19.3c-1.3,3.8-3,7.9-5.4,11.2c8.2-6.2,13.5-16.1,13.5-27.2
	C83.7,30.7,68.4,15.4,49.5,15.4z M38.4,56.7c-2.3,0-4.2-1.9-4.2-4.2c0-2.3,1.9-4.2,4.2-4.2c2.3,0,4.2,1.9,4.2,4.2
	C42.6,54.8,40.7,56.7,38.4,56.7z M60.9,47.4c-2.8,0-5.1-2.3-5.1-5.1c0-2.8,2.3-5.1,5.1-5.1c2.8,0,5.1,2.3,5.1,5.1
	C66,45.1,63.7,47.4,60.9,47.4z"/>
</svg>
